HIERARCHY
ROOT Hips
{
	OFFSET 56.877701 -32.693596 43.373703
	CHANNELS 6 Xposition Yposition Zposition Zrotation Xrotation Yrotation
	JOINT Chest
	{
		OFFSET -0.779999 1.005800 5.403099
		CHANNELS 6 Xposition Yposition Zposition Zrotation Xrotation Yrotation
		JOINT Chest2
		{
			OFFSET 0.000000 0.000000 4.236801
			CHANNELS 6 Xposition Yposition Zposition Zrotation Xrotation Yrotation
			JOINT Neck
			{
				OFFSET 0.000000 0.000000 9.874401
				CHANNELS 6 Xposition Yposition Zposition Zrotation Xrotation Yrotation
				JOINT Head
				{
					OFFSET 0.000000 0.000002 2.173893
					CHANNELS 6 Xposition Yposition Zposition Zrotation Xrotation Yrotation
					End Site
					{
						OFFSET 0.000000 0.000000 6.508102
					}
				}
			}
			JOINT LeftCollar
			{
				OFFSET 2.681599 -0.377600 5.432499
				CHANNELS 6 Xposition Yposition Zposition Zrotation Xrotation Yrotation
				JOINT LeftShoulder
				{
					OFFSET 5.161499 0.000000 0.000000
					CHANNELS 6 Xposition Yposition Zposition Zrotation Xrotation Yrotation
					JOINT LeftElbow
					{
						OFFSET 0.000000 0.000000 -10.869099
						CHANNELS 6 Xposition Yposition Zposition Zrotation Xrotation Yrotation
						JOINT LeftWrist
						{
							OFFSET 0.000000 0.000000 -13.344799
							CHANNELS 6 Xposition Yposition Zposition Zrotation Xrotation Yrotation
							End Site
							{
								OFFSET 0.000000 0.000000 -2.173901
							}
						}
					}
				}
			}
			JOINT RightCollar
			{
				OFFSET -2.381901 -1.419600 6.136600
				CHANNELS 6 Xposition Yposition Zposition Zrotation Xrotation Yrotation
				JOINT RightShoulder
				{
					OFFSET -4.550499 0.000000 0.000000
					CHANNELS 6 Xposition Yposition Zposition Zrotation Xrotation Yrotation
					JOINT RightElbow
					{
						OFFSET 0.000000 0.000000 -11.106499
						CHANNELS 6 Xposition Yposition Zposition Zrotation Xrotation Yrotation
						JOINT RightWrist
						{
							OFFSET 0.000000 0.000000 -12.874298
							CHANNELS 6 Xposition Yposition Zposition Zrotation Xrotation Yrotation
							End Site
							{
								OFFSET 0.000000 0.000000 -2.173901
							}
						}
					}
				}
			}
		}
	}
	JOINT LeftHip
	{
		OFFSET 2.431900 0.469601 -2.489399
		CHANNELS 6 Xposition Yposition Zposition Zrotation Xrotation Yrotation
		JOINT LeftKnee
		{
			OFFSET 0.000000 -0.000004 -18.200201
			CHANNELS 6 Xposition Yposition Zposition Zrotation Xrotation Yrotation
			JOINT LeftAnkle
			{
				OFFSET 0.000000 0.000000 -16.279900
				CHANNELS 6 Xposition Yposition Zposition Zrotation Xrotation Yrotation
				End Site
				{
					OFFSET 0.000000 -8.394100 0.000000
				}
			}
		}
	}
	JOINT RightHip
	{
		OFFSET -1.987999 -0.073502 -2.713001
		CHANNELS 6 Xposition Yposition Zposition Zrotation Xrotation Yrotation
		JOINT RightKnee
		{
			OFFSET 0.000000 -0.000004 -19.547802
			CHANNELS 6 Xposition Yposition Zposition Zrotation Xrotation Yrotation
			JOINT RightAnkle
			{
				OFFSET 0.000000 0.000000 -14.881199
				CHANNELS 6 Xposition Yposition Zposition Zrotation Xrotation Yrotation
				End Site
				{
					OFFSET 0.000000 -7.922699 0.000000
				}
			}
		}
	}
}
MOTION
Frames: 4
Frame Time: 0.041667
53.982700 -39.417900 38.782902 1741.286897 32.313949 -0.455750 -0.780001 1.005796 5.403091 -24.013055 -29.595514 11.293060 0.000004 -0.000002 4.236804 6.572206 -4.106779 -0.632696 0.000004 -0.000004 9.874400 59.817895 -18.286510 11.393476 -0.000006 -0.000001 2.173887 3.395553 0.854739 7.245468 2.681592 -0.377604 5.432500 -22.012771 10.129868 -2.401401 5.161506 0.000002 -0.000005 102.367406 -110.042530 82.518486 -0.000004 0.000000 -10.869100 48.340223 -10.226087 17.763603 0.000002 -0.000002 -13.344802 26.306245 -19.765365 11.178547 -2.381898 -1.419600 6.136596 6.815809 9.774861 17.624200 -4.550495 -0.000001 -0.000004 -832.592137 -523.119926 -390.132537 0.000020 0.000005 -11.106492 179.028411 -58.066129 159.966828 0.000003 0.000005 -12.874298 -892.372302 2.653222 -11.404038 2.431897 0.469598 -2.489401 64.358578 -49.210659 46.042763 -0.000000 -0.000001 -18.200205 -64.421682 59.015676 47.853285 -0.000003 -0.000000 -16.279896 27.154457 14.582310 -4.019329 -1.987999 -0.073497 -2.713007 -105.513001 -35.368038 -85.827857 0.000005 0.000000 -19.547794 -1262.270868 43.949313 528.435344 -0.000007 0.000008 -14.881196 518.734289 116.585879 241.462077
53.968597 -39.424801 38.786209 1741.385252 32.373539 -0.452516 -0.779997 1.005804 5.403097 -24.090282 -29.639749 11.226995 0.000004 -0.000002 4.236794 6.587400 -4.107859 -0.633416 0.000002 0.000005 9.874398 59.839642 -18.274108 11.426217 0.000002 -0.000001 2.173893 3.370697 0.824486 7.228726 2.681599 -0.377597 5.432493 -22.070173 10.147653 -2.343457 5.161496 0.000003 0.000010 102.285170 -110.118509 82.367170 0.000002 0.000006 -10.869099 48.207984 -10.292359 17.712528 -0.000001 0.000000 -13.344805 26.461331 -19.714064 11.155874 -2.381896 -1.419598 6.136596 6.752419 9.716592 17.381552 -4.550499 -0.000002 0.000000 -832.602355 -523.417176 -390.051312 0.000006 -0.000008 -11.106500 178.824666 -58.061211 159.899428 0.000003 0.000010 -12.874289 -892.420113 2.642661 -11.396410 2.431905 0.469618 -2.489393 64.554570 -49.174200 46.183639 -0.000002 -0.000010 -18.200205 -64.339692 59.185269 47.763052 0.000004 -0.000009 -16.279900 26.854303 14.587396 -4.027903 -1.987992 -0.073493 -2.713000 -105.434092 -35.533267 -85.862322 -0.000005 -0.000002 -19.547798 -1262.380697 43.961136 528.377096 -0.000008 0.000008 -14.881196 518.713526 116.582136 241.505708
53.954506 -39.431198 38.790104 1741.480656 32.428430 -0.457801 -0.779994 1.005793 5.403087 -24.159351 -29.691368 11.183235 0.000004 -0.000001 4.236795 6.608239 -4.112502 -0.635223 0.000008 0.000002 9.874401 59.840039 -18.270469 11.439849 -0.000003 0.000005 2.173892 3.361243 0.802893 7.213948 2.681603 -0.377603 5.432493 -22.153370 10.186223 -2.265719 5.161510 -0.000014 0.000009 102.135753 -110.167987 82.107794 0.000007 0.000002 -10.869101 47.934606 -10.377899 17.641125 0.000009 -0.000002 -13.344798 26.730058 -19.692429 11.116774 -2.381900 -1.419600 6.136592 6.697332 9.676386 17.097562 -4.550495 0.000001 -0.000002 -832.598038 -523.738796 -389.933068 0.000012 0.000002 -11.106482 178.663760 -58.085882 159.859758 0.000000 -0.000005 -12.874297 -892.394814 2.642612 -11.400790 2.431901 0.469604 -2.489401 64.695818 -49.137272 46.293212 0.000003 -0.000007 -18.200207 -64.270837 59.326333 47.678159 0.000001 -0.000003 -16.279898 26.584191 14.592493 -3.981479 -1.987993 -0.073497 -2.713008 -105.326250 -35.670892 -85.874534 0.000000 -0.000007 -19.547796 -1262.443207 43.994673 528.301854 -0.000008 0.000007 -14.881197 518.695986 116.580565 241.533166
53.940205 -39.437096 38.794304 1741.573656 32.466512 -0.463717 -0.779998 1.005800 5.403096 -24.229302 -29.732558 11.156491 0.000013 -0.000001 4.236793 6.643371 -4.118478 -0.630538 0.000001 0.000002 9.874412 59.818052 -18.287123 11.437877 0.000009 0.000001 2.173895 3.362317 0.791921 7.200571 2.681599 -0.377599 5.432507 -22.235993 10.231550 -2.210152 5.161500 -0.000004 -0.000008 101.941502 -110.163950 81.799411 0.000000 -0.000004 -10.869095 47.648469 -10.449109 17.583419 -0.000001 -0.000011 -13.344799 26.915033 -19.666531 11.019959 -2.381904 -1.419600 6.136594 6.629365 9.625944 16.793994 -4.550506 -0.000003 0.000003 -832.559352 -524.069487 -389.801218 -0.000001 -0.000018 -11.106485 178.560447 -58.146370 159.859553 -0.000005 0.000004 -12.874298 -892.309683 2.657312 -11.412876 2.431904 0.469604 -2.489397 64.759032 -49.105491 46.335682 -0.000006 -0.000005 -18.200207 -64.237055 59.391760 47.632192 -0.000004 -0.000005 -16.279896 26.381245 14.601012 -3.891072 -1.987994 -0.073492 -2.712998 -105.238940 -35.754053 -85.898911 0.000001 -0.000002 -19.547794 -1262.436650 44.011588 528.227542 -0.000011 0.000010 -14.881193 518.717842 116.577628 241.469945
